<svg width="1371" height="1371" viewBox="0 0 1371 1371" fill="none" xmlns="http://www.w3.org/2000/svg">
<g filter="url(#filter0_d_37_9)">
<path fill-rule="evenodd" clip-rule="evenodd" d="M764.019 593.39C825.88 538.111 917.436 454.043 1013.86 357.62C917.13 454.349 833.217 545.728 778.068 607.453C737.795 652.529 737.813 719.946 778.089 765.019C833.368 826.88 917.436 918.436 1013.86 1014.86C917.13 918.13 825.751 834.217 764.026 779.068C718.95 738.795 651.533 738.813 606.46 779.089C544.599 834.368 453.043 918.436 356.62 1014.86C453.349 918.13 537.262 826.751 592.411 765.026C632.684 719.95 632.666 652.533 592.39 607.46C537.111 545.599 453.043 454.043 356.62 357.62C453.349 454.349 544.728 538.262 606.453 593.411C651.529 633.684 718.946 633.666 764.019 593.39Z" fill="#A5A5A5"/>
<path fill-rule="evenodd" clip-rule="evenodd" d="M862.942 670.953C984.05 677.759 1165.62 685.5 1365 685.5C1164.99 685.5 983.76 693.219 862.928 700.018C774.688 704.983 705.006 774.702 700.047 862.942C693.241 984.05 685.5 1165.62 685.5 1365C685.5 1164.99 677.781 983.76 670.982 862.928C666.017 774.688 596.298 705.006 508.058 700.047C386.95 693.241 205.378 685.5 6 685.5C206.012 685.5 387.24 677.781 508.072 670.982C596.312 666.017 665.994 596.298 670.953 508.058C677.759 386.95 685.5 205.378 685.5 6C685.5 206.012 693.219 387.24 700.018 508.072C704.983 596.312 774.702 665.994 862.942 670.953Z" fill="white"/>
</g>
<defs>
<filter id="filter0_d_37_9" x="0.5" y="0.5" width="1370" height="1370" filterUnits="userSpaceOnUse" color-interpolation-filters="sRGB">
<feFlood flood-opacity="0" result="BackgroundImageFix"/>
<feColorMatrix in="SourceAlpha" type="matrix" values="0 0 0 0 0 0 0 0 0 0 0 0 0 0 0 0 0 0 127 0" result="hardAlpha"/>
<feOffset/>
<feGaussianBlur stdDeviation="2.75"/>
<feComposite in2="hardAlpha" operator="out"/>
<feColorMatrix type="matrix" values="0 0 0 0 0 0 0 0 0 0 0 0 0 0 0 0 0 0 0.25 0"/>
<feBlend mode="normal" in2="BackgroundImageFix" result="effect1_dropShadow_37_9"/>
<feBlend mode="normal" in="SourceGraphic" in2="effect1_dropShadow_37_9" result="shape"/>
</filter>
</defs>
</svg>
